<svg width="1005" height="651" viewBox="0 0 1005 651" fill="none" xmlns="http://www.w3.org/2000/svg">
<path d="M0.75 331.912C76.9432 307.746 207.694 214.233 248.25 120.314C314.75 -33.6829 57.4488 -42.1798 42.25 113.817C35.0582 187.632 48.3963 453.41 248.25 564.817C306.737 597.421 373.748 616.149 426.25 614.317C479.225 612.469 508.25 592.817 516.75 581.817C537.497 554.968 495.75 512.732 473.25 556.317C450.75 599.903 517.398 634.317 578.25 634.317C657.75 634.317 758.75 612.817 867.75 550.317C948.746 503.874 998.966 435.817 1004.25 427.817C972.25 456.317 899.447 471.305 836.318 467.317C747.852 461.729 714.352 489.819 709.75 532.817C705.148 575.816 767.75 660.25 836.318 648.817C904.81 637.398 937.75 593.817 988.75 467.317" stroke="#A49582" stroke-width="1.5" stroke-linecap="round" stroke-linejoin="round"/>
</svg>
