<svg width="1166" height="626" viewBox="0 0 1166 626" fill="none" xmlns="http://www.w3.org/2000/svg">
<path d="M0.75 165.711C68.4167 130.378 223.75 52.3114 303.75 22.7114C403.75 -14.2886 442.25 -8.28864 411.25 69.7114C380.25 147.711 175.25 394.672 245.25 439.211C315.25 483.75 432.25 314.211 483.75 314.211C535.25 314.211 419.75 492.211 454.25 507.711C488.75 523.211 560.75 484.75 589.25 476.211C617.75 467.672 606.25 520.711 606.25 520.711C606.25 520.711 598.25 552.711 630.25 530.211C662.25 507.711 675.25 511.211 667.75 538.711C660.25 566.211 730.75 508.211 746.25 492.211C761.75 476.211 922.25 241.172 926.25 240.711C930.25 240.25 1166.75 297.711 1155.25 314.211C1143.75 330.711 970.25 576.211 931.75 570.711C893.25 565.211 728.25 524.25 716.25 538.711C704.25 553.172 722.25 560.211 746.25 570.711C770.25 581.211 951.25 634.211 964.75 623.711C978.25 613.211 1139.25 442.211 1164.75 372.211" stroke="#A49582" stroke-width="1.5" stroke-linecap="round" stroke-linejoin="round"/>
</svg>
