<svg width="1045" height="553" viewBox="0 0 1045 553" fill="none" xmlns="http://www.w3.org/2000/svg">
<path d="M0.75 352.635C79.75 336.635 189.627 264.954 233.75 203.634C301.75 109.13 217.75 -53.3711 97.75 18.6293C64.21 38.7535 42.4493 89.0745 53.25 137.133C78.25 221.63 142.116 226.674 171.75 205.63C206.25 181.13 200.75 130.63 174.25 151.63C146.292 173.785 160.279 332.123 291.75 446.63C345.544 493.483 467.009 514.684 567.75 510.63C644.75 501.63 720.25 497.626 797.75 455.628C875.25 413.63 895.75 357.13 908.75 359.13C921.75 361.13 1051.75 461.632 1043.75 467.13C1035.75 472.628 1001.75 467.13 997.25 472.628C992.75 478.126 1001.25 541.63 994.25 546.127C987.25 550.625 823.75 554.13 818.25 548.13C812.75 542.13 818.25 474.63 813.75 472.628C809.25 470.626 789.75 472.628 789.75 472.628" stroke="#A49582" stroke-width="1.5" stroke-linecap="round" stroke-linejoin="round"/>
</svg>
