<svg width="1129" height="544" viewBox="0 0 1129 544" fill="none" xmlns="http://www.w3.org/2000/svg">
<path d="M0.75 89.2454C68.4167 53.9121 82.75 46.8458 162.75 17.2458C262.75 -19.7542 336.106 6.01611 325.25 89.2456C313.25 181.245 183.75 395.206 253.75 439.745C323.75 484.284 458.75 279.789 510.25 279.789C561.75 279.789 449.25 421.75 483.75 437.25C518.25 452.75 590.25 414.289 618.75 405.75C647.25 397.211 635.75 450.25 635.75 450.25C635.75 450.25 627.75 482.25 659.75 459.75C691.75 437.25 704.75 440.75 697.25 468.25C689.75 495.75 760.25 437.75 775.75 421.75C791.25 405.75 921.25 244.211 925.25 243.75C929.25 243.289 1119.75 277.789 1108.25 294.289C1096.75 310.789 977.75 505.75 939.25 500.25C900.75 494.75 757.75 453.789 745.75 468.25C733.75 482.711 751.75 489.75 775.75 500.25C799.75 510.75 951.25 551.789 964.75 541.289C978.25 530.789 1101.93 393.289 1127.43 323.289C1130.09 315.135 1126.43 307.189 1112.43 320.789C1094.93 337.789 1042.25 455.789 950.25 522.289C910.75 517.789 919.75 521.489 775.75 482.289" stroke="#A49582" stroke-width="1.5" stroke-linecap="round" stroke-linejoin="round"/>
</svg>
