<svg width="30" height="30" viewBox="0 0 30 30" fill="none" xmlns="http://www.w3.org/2000/svg">
<path d="M21.6279 8.125H21.875M3.75 11.75C3.75 8.95 3.75 7.55 4.295 6.48C4.77436 5.53923 5.53923 4.77436 6.48 4.295C7.55 3.75 8.95 3.75 11.75 3.75H18.25C21.05 3.75 22.45 3.75 23.52 4.295C24.4608 4.77436 25.2256 5.53923 25.705 6.48C26.25 7.55 26.25 8.95 26.25 11.75V18.25C26.25 21.05 26.25 22.45 25.705 23.52C25.2256 24.4608 24.4608 25.2256 23.52 25.705C22.45 26.25 21.05 26.25 18.25 26.25H11.75C8.95 26.25 7.55 26.25 6.48 25.705C5.53923 25.2256 4.77436 24.4608 4.295 23.52C3.75 22.45 3.75 21.05 3.75 18.25V11.75Z" stroke="#544530" stroke-width="1.5" stroke-linecap="round" stroke-linejoin="round"/>
<path d="M19.3275 14.3588C19.4117 14.9271 19.3832 15.5065 19.2435 16.0639C19.1038 16.6212 18.8556 17.1456 18.5133 17.607C18.1709 18.0685 17.741 18.458 17.2482 18.7533C16.7553 19.0486 16.209 19.2439 15.6407 19.3281C15.0723 19.4124 14.4929 19.3838 13.9355 19.2441C13.3782 19.1044 12.8538 18.8563 12.3924 18.5139C11.4605 17.8225 10.8414 16.7892 10.6713 15.6413C10.5012 14.4934 10.7941 13.3249 11.4855 12.393C12.177 11.4611 13.2103 10.842 14.3582 10.6719C15.5061 10.5018 16.6745 10.7947 17.6064 11.4861C18.5384 12.1776 19.1575 13.2109 19.3275 14.3588Z" stroke="#544530" stroke-width="1.5" stroke-linecap="round" stroke-linejoin="round"/>
</svg>
