<svg width="30" height="30" viewBox="0 0 30 30" fill="none" xmlns="http://www.w3.org/2000/svg">
<g clip-path="url(#clip0_373_269)">
<path d="M30 0V30H0V0H30ZM14.9707 5.50195C9.01965 5.50195 4.19549 9.31463 4.19531 14.0205C4.19531 17.0826 6.23848 19.7661 9.30664 21.2676C9.0808 22.1079 8.49008 24.3161 8.37207 24.7881C8.22579 25.3737 8.58622 25.3656 8.82422 25.209C9.01067 25.084 11.7767 23.2022 12.9707 22.3906C13.6197 22.4862 14.2871 22.5371 14.9707 22.5371C20.9218 22.537 25.7461 18.7244 25.7461 14.0205C25.7459 9.31468 20.9217 5.50204 14.9707 5.50195Z" fill="#544530"/>
</g>
<defs>
<clipPath id="clip0_373_269">
<rect width="30" height="30" rx="6" fill="white"/>
</clipPath>
</defs>
</svg>
