<svg width="1681" height="355" viewBox="0 0 1681 355" fill="none" xmlns="http://www.w3.org/2000/svg">
<g clip-path="url(#clip0_373_230)">
<mask id="path-1-inside-1_373_230" fill="white">
<path d="M0 0H1681V355H0V0Z"/>
</mask>
<path d="M178.773 78.6251L117.321 214.015H242.421L178.773 78.6251ZM105.616 241.639C93.9104 266.875 70.4998 315.643 51.113 384.872C44.1631 383.85 38.3105 381.803 26.971 381.803C15.6316 381.803 8.68156 383.85 1 384.872C53.3077 278.811 140 100.451 181.699 1.89282C186.456 2.57489 190.113 3.59798 196.331 3.59798C201.453 3.59798 204.744 2.91592 209.134 1.89282C254.126 116.821 383.981 382.826 385.079 384.872C375.202 383.167 364.96 381.803 350.328 381.803C334.965 381.803 323.992 383.508 312.652 384.872C292.168 319.393 268.026 271.649 253.395 241.639H105.616Z" fill="#C0B6A9"/>
<path d="M631.613 229.019C631.613 210.945 631.613 138.304 561.382 138.304C510.171 138.304 485.663 174.454 480.177 229.019H631.613ZM479.811 251.868C479.811 267.215 479.811 298.248 495.54 323.485C522.608 364.75 560.651 366.115 577.842 366.115C635.271 366.115 662.339 333.375 671.119 321.78L678.069 323.144C674.411 338.49 674.411 347.357 674.045 355.884C648.073 378.733 612.592 391.692 565.04 391.692C475.788 391.692 421.285 339.173 421.285 254.938C421.285 179.569 465.911 116.138 562.113 116.138C693.066 116.138 691.236 222.198 690.505 251.868H479.811Z" fill="#C0B6A9"/>
<path d="M914.002 179.57C911.808 171.385 908.15 157.744 891.323 146.832C878.887 138.646 862.791 137.623 853.282 137.623C817.434 137.623 798.779 155.016 798.779 178.547C798.779 210.263 833.528 221.858 854.013 226.633C906.32 239.251 948.387 249.482 948.387 304.388C948.387 345.994 917.294 392.374 835.723 392.374C788.171 392.374 755.25 373.617 749.031 369.526C756.714 356.225 761.469 333.035 762.566 325.873L769.516 324.168C773.539 333.376 779.392 348.381 801.34 360.317C815.971 368.502 831.334 370.548 844.136 370.548C874.863 370.548 903.394 356.907 903.394 325.532C903.394 294.498 883.276 288.36 821.823 269.602C796.584 261.759 754.884 245.048 754.884 196.963C754.884 165.929 775.369 115.456 856.574 115.456C897.176 115.456 920.586 127.052 934.121 133.531C928.268 147.854 924.244 160.813 922.416 179.57H914.002Z" fill="#C0B6A9"/>
<path d="M1067.27 252.551C1067.27 328.601 1103.12 370.548 1156.89 370.548C1213.22 370.548 1250.16 325.191 1250.16 252.892C1250.16 210.263 1235.9 137.623 1159.81 137.623C1067.27 137.623 1067.27 235.841 1067.27 252.551ZM1310.15 250.846C1310.15 337.809 1245.78 392.374 1156.52 392.374C1094.34 392.374 1007.28 366.115 1007.28 253.915C1007.28 168.657 1068.37 115.456 1156.52 115.456C1267.72 115.797 1310.15 184.004 1310.15 250.846Z" fill="#C0B6A9"/>
<path d="M1461.95 171.045C1450.26 184.686 1437.82 204.466 1437.82 258.69C1437.82 306.776 1449.53 324.851 1461.95 338.491C1476.95 355.543 1497.08 365.433 1524.14 365.433C1607.91 365.433 1607.91 273.014 1607.91 255.28C1607.91 172.75 1565.48 142.739 1527.44 142.739C1495.98 142.398 1475.49 155.016 1461.95 171.045ZM1534.75 393.057C1479.52 393.057 1448.43 364.751 1438.92 342.243C1438.92 428.184 1438.19 477.974 1441.84 528.106C1433.06 526.059 1425.38 525.037 1411.12 525.037C1396.48 525.037 1388.8 526.059 1379.66 528.106C1384.41 457.172 1386.24 385.213 1386.24 314.279C1386.24 264.488 1385.14 197.304 1383.31 117.844C1391.37 119.549 1400.87 120.913 1412.21 120.913C1422.82 120.913 1432.7 119.208 1441.11 117.844C1438.92 147.854 1438.92 156.04 1438.92 167.634C1448.43 153.312 1473.67 115.115 1538.77 115.115C1597.3 115.115 1669 155.016 1669 252.552C1668.63 338.833 1611.57 393.057 1534.75 393.057Z" fill="#C0B6A9"/>
<path d="M645.16 47.9304H483.115V64.982H645.16V47.9304Z" fill="#C0B6A9"/>
</g>
<path d="M1681 355V354H0V355V356H1681V355Z" fill="#C0B6A9" mask="url(#path-1-inside-1_373_230)"/>
<defs>
<clipPath id="clip0_373_230">
<path d="M0 0H1681V355H0V0Z" fill="white"/>
</clipPath>
</defs>
</svg>
