<svg width="123" height="40" viewBox="0 0 123 40" fill="none" xmlns="http://www.w3.org/2000/svg">
<g clip-path="url(#clip0_420_1220)">
<path d="M12.207 5.80477L7.98734 16.047H16.5775L12.207 5.80477ZM7.18358 18.1367C6.37982 20.0458 4.77231 23.7351 3.44108 28.9723C2.96386 28.8949 2.56198 28.7401 1.78334 28.7401C1.0047 28.7401 0.527466 28.8949 0 28.9723C3.59179 20.9488 9.54463 7.45591 12.408 0C12.7346 0.051598 12.9857 0.128995 13.4127 0.128995C13.7644 0.128995 13.9904 0.0773969 14.2918 0C17.3813 8.6943 26.2979 28.8174 26.3733 28.9723C25.6951 28.8432 24.9918 28.7401 23.9871 28.7401C22.9322 28.7401 22.1787 28.869 21.4 28.9723C19.9934 24.0188 18.3357 20.407 17.331 18.1367H7.18358Z" fill="#544530"/>
<path d="M43.3021 17.1821C43.3021 15.8148 43.3021 10.3196 38.4796 10.3196C34.9631 10.3196 33.2802 13.0543 32.9035 17.1821H43.3021ZM32.8784 18.9106C32.8784 20.0716 32.8784 22.4193 33.9584 24.3284C35.8171 27.4501 38.4294 27.5533 39.6098 27.5533C43.5533 27.5533 45.4119 25.0766 46.0148 24.1995L46.4921 24.3026C46.2409 25.4636 46.2409 26.1344 46.2158 26.7794C44.4324 28.5079 41.996 29.4882 38.7308 29.4882C32.6021 29.4882 28.8596 25.5152 28.8596 19.1429C28.8596 13.4413 31.9239 8.6427 38.5298 8.6427C47.5219 8.6427 47.3962 16.6661 47.346 18.9106H32.8784Z" fill="#544530"/>
<path d="M62.6926 13.4413C62.5419 12.822 62.2908 11.7901 61.1353 10.9646C60.2814 10.3454 59.1761 10.268 58.5231 10.268C56.0616 10.268 54.7806 11.5837 54.7806 13.3638C54.7806 15.7631 57.1667 16.6403 58.5734 17.0015C62.1651 17.9561 65.0537 18.73 65.0537 22.8837C65.0537 26.0311 62.9187 29.5398 57.3175 29.5398C54.0522 29.5398 51.7916 28.1209 51.3646 27.8113C51.8922 26.8051 52.2187 25.0508 52.294 24.509L52.7712 24.38C53.0475 25.0766 53.4494 26.2117 54.9565 27.1147C55.9612 27.7339 57.0161 27.8887 57.8952 27.8887C60.0051 27.8887 61.9642 26.8568 61.9642 24.4832C61.9642 22.1355 60.5828 21.6712 56.363 20.2522C54.6299 19.6588 51.7665 18.3946 51.7665 14.757C51.7665 12.4093 53.1731 8.59106 58.7492 8.59106C61.5372 8.59106 63.1447 9.46826 64.0741 9.95838C63.6722 11.042 63.3959 12.0223 63.2703 13.4413H62.6926Z" fill="#544530"/>
<path d="M73.2173 18.9622C73.2173 24.7154 75.6788 27.8887 79.3711 27.8887C83.2391 27.8887 85.776 24.4574 85.776 18.988C85.776 15.7631 84.7965 10.268 79.572 10.268C73.2173 10.268 73.2173 17.6981 73.2173 18.9622ZM89.8952 18.8333C89.8952 25.412 85.4748 29.5398 79.346 29.5398C75.076 29.5398 69.098 27.5533 69.098 19.0654C69.098 12.6157 73.2927 8.59106 79.346 8.59106C86.9814 8.61685 89.8952 13.7767 89.8952 18.8333Z" fill="#544530"/>
<path d="M100.318 12.7964C99.5151 13.8283 98.6609 15.3246 98.6609 19.4267C98.6609 23.0644 99.4651 24.4317 100.318 25.4636C101.348 26.7536 102.73 27.5017 104.589 27.5017C110.341 27.5017 110.341 20.5102 110.341 19.1687C110.341 12.9253 107.427 10.655 104.815 10.655C102.655 10.6292 101.248 11.5838 100.318 12.7964ZM105.317 29.5915C101.525 29.5915 99.3896 27.4502 98.7364 25.7474C98.7364 32.2488 98.6864 36.0154 98.9375 39.8079C98.3343 39.6531 97.8067 39.5757 96.8278 39.5757C95.8226 39.5757 95.295 39.6531 94.6672 39.8079C94.9938 34.4417 95.1194 28.9981 95.1194 23.6319C95.1194 19.8653 95.0439 14.7828 94.9183 8.77169C95.4714 8.90071 96.1237 9.00386 96.9024 9.00386C97.6311 9.00386 98.3097 8.87492 98.8874 8.77169C98.7364 11.042 98.7364 11.6612 98.7364 12.5383C99.3896 11.4548 101.123 8.56531 105.593 8.56531C109.612 8.56531 114.536 11.5838 114.536 18.9623C114.51 25.4895 110.592 29.5915 105.317 29.5915Z" fill="#544530"/>
<path d="M44.2321 3.48291H33.1051V4.77286H44.2321V3.48291Z" fill="#544530"/>
<path d="M119.861 25.3088C119.861 25.7216 119.861 26.0828 119.861 26.444C120.187 26.444 120.941 26.444 120.941 25.8506C120.941 25.3088 120.363 25.3088 119.861 25.3088ZM121.795 28.1467C121.694 28.1467 121.618 28.1209 121.493 28.1209C121.393 28.1209 121.292 28.1467 121.116 28.1467C120.614 27.3985 120.212 26.9858 119.935 26.6503H119.835C119.835 27.1148 119.835 27.476 119.885 28.1467C119.76 28.1467 119.71 28.1209 119.559 28.1209C119.409 28.1209 119.358 28.1467 119.283 28.1467C119.308 27.8114 119.333 27.4502 119.333 26.5472C119.333 25.7732 119.308 25.4121 119.308 25.0766C119.534 25.0766 119.684 25.0766 120.036 25.0766C120.765 25.0766 121.518 25.0766 121.518 25.799C121.518 26.444 120.84 26.5472 120.538 26.573C120.74 26.8567 121.644 27.8887 121.819 28.0951L121.795 28.1467ZM120.363 24.4575C119.157 24.4575 118.228 25.4378 118.228 26.6761C118.228 27.9403 119.132 28.8949 120.363 28.8949C121.594 28.8949 122.498 27.9403 122.498 26.6761C122.523 25.4636 121.644 24.4575 120.363 24.4575ZM120.363 23.9673C121.845 23.9673 123 25.1798 123 26.6761C123 28.1983 121.819 29.3851 120.363 29.3851C118.906 29.3851 117.726 28.1983 117.726 26.6761C117.75 25.154 118.931 23.9673 120.363 23.9673Z" fill="#544530"/>
</g>
<defs>
<clipPath id="clip0_420_1220">
<rect width="123" height="40" fill="white"/>
</clipPath>
</defs>
</svg>
