<svg width="24" height="24" viewBox="0 0 24 24" fill="none" xmlns="http://www.w3.org/2000/svg">
<path d="M10.5001 17.0002C14.09 17.0002 17.0001 14.0901 17.0001 10.5002C17.0001 6.91039 14.09 4.00024 10.5001 4.00024C6.91025 4.00024 4.0001 6.91039 4.0001 10.5002C4.0001 14.0901 6.91025 17.0002 10.5001 17.0002Z" stroke="#544530" stroke-width="1.61837" stroke-miterlimit="10"/>
<path d="M19.4276 20.5722C19.7436 20.8882 20.256 20.8882 20.572 20.5722C20.888 20.2562 20.888 19.7438 20.572 19.4278L19.9998 20L19.4276 20.5722ZM14.9998 15L14.4276 15.5722L19.4276 20.5722L19.9998 20L20.572 19.4278L15.572 14.4278L14.9998 15Z" fill="#544530"/>
</svg>
