<svg width="874" height="239" viewBox="0 0 874 239" fill="none" xmlns="http://www.w3.org/2000/svg">
<path d="M198.4 222.398C200.747 227.518 203.413 231.251 206.4 233.598C209.387 235.945 213.973 237.118 220.16 237.118V238.078H159.04V237.118C166.507 237.118 170.987 235.518 172.48 232.318C174.187 228.905 173.227 222.931 169.6 214.398L151.04 169.278H49.92L28.8 221.438C27.52 227.198 28.48 231.251 31.68 233.598C35.0933 235.945 39.8933 237.118 46.08 237.118V238.078H-3.52V237.118C3.94667 237.118 9.81333 235.305 14.08 231.678C18.56 227.838 22.4 222.078 25.6 214.398L96.32 38.3981L86.08 14.0781H112.32L198.4 222.398ZM148.48 163.518L99.52 46.0781L52.16 163.518H148.48ZM303.36 65.9181C316.373 65.9181 327.787 68.2648 337.6 72.9581C347.413 77.6515 355.627 84.0515 362.24 92.1581C368.853 100.051 373.76 109.438 376.96 120.318C380.373 130.985 382.08 142.398 382.08 154.558C382.08 166.718 380.053 178.238 376 189.118C371.947 199.998 366.187 209.491 358.72 217.598C351.253 225.491 342.187 231.785 331.52 236.478C321.067 241.171 309.333 243.518 296.32 243.518C284.373 243.518 273.173 241.171 262.72 236.478C252.267 231.785 243.093 225.705 235.2 218.238C227.52 210.771 221.44 202.558 216.96 193.598C212.48 184.425 210.24 175.358 210.24 166.398V23.6781C210.24 14.2914 208.747 8.21144 205.76 5.43811C202.987 2.45144 197.867 0.958107 190.4 0.958107V-0.00188065H232V114.238C237.547 100.158 246.187 88.6381 257.92 79.6781C269.653 70.5048 284.8 65.9181 303.36 65.9181ZM295.36 233.918C305.387 233.918 314.24 231.891 321.92 227.838C329.813 223.785 336.427 218.238 341.76 211.198C347.307 204.158 351.467 195.838 354.24 186.238C357.227 176.425 358.72 165.865 358.72 154.558C358.72 143.251 357.227 132.798 354.24 123.198C351.467 113.385 347.307 104.958 341.76 97.9181C336.427 90.8781 329.813 85.3315 321.92 81.2781C314.24 77.2248 305.387 75.1981 295.36 75.1981C285.973 75.1981 277.333 77.2248 269.44 81.2781C261.76 85.3315 255.147 90.8781 249.6 97.9181C244.053 104.958 239.68 113.385 236.48 123.198C233.493 132.798 232 143.251 232 154.558C232 165.865 233.6 176.425 236.8 186.238C240 195.838 244.373 204.158 249.92 211.198C255.68 218.238 262.4 223.785 270.08 227.838C277.973 231.891 286.4 233.918 295.36 233.918ZM492.123 65.2781C506.629 65.2781 519.429 67.6248 530.523 72.3181C541.829 77.0115 551.323 83.4115 559.003 91.5181C566.683 99.4114 572.549 108.798 576.603 119.678C580.656 130.345 582.683 141.758 582.683 153.918C582.683 166.078 580.656 177.598 576.603 188.478C572.549 199.145 566.683 208.531 559.003 216.638C551.323 224.531 541.829 230.825 530.523 235.518C519.429 240.211 506.629 242.558 492.123 242.558C477.616 242.558 464.709 240.211 453.403 235.518C442.309 230.825 432.923 224.531 425.243 216.638C417.563 208.531 411.696 199.145 407.643 188.478C403.589 177.598 401.563 166.078 401.563 153.918C401.563 141.758 403.589 130.345 407.643 119.678C411.696 108.798 417.563 99.4114 425.243 91.5181C432.923 83.4115 442.309 77.0115 453.403 72.3181C464.709 67.6248 477.616 65.2781 492.123 65.2781ZM492.123 236.798C502.789 236.798 512.283 234.665 520.603 230.398C528.923 225.918 535.963 219.945 541.723 212.478C547.483 204.798 551.856 195.945 554.843 185.918C557.829 175.891 559.323 165.225 559.323 153.918C559.323 142.611 557.829 131.945 554.843 121.918C551.856 111.891 547.483 103.145 541.723 95.6781C535.963 88.2115 528.923 82.3448 520.603 78.0781C512.283 73.5981 502.789 71.3581 492.123 71.3581C481.456 71.3581 471.963 73.5981 463.643 78.0781C455.323 82.3448 448.283 88.2115 442.523 95.6781C436.763 103.145 432.389 111.891 429.403 121.918C426.416 131.945 424.923 142.611 424.923 153.918C424.923 165.225 426.416 175.891 429.403 185.918C432.389 195.945 436.763 204.798 442.523 212.478C448.283 219.945 455.323 225.918 463.643 230.398C471.963 234.665 481.456 236.798 492.123 236.798ZM765.87 94.3981V214.718C765.87 224.105 767.257 230.291 770.03 233.278C773.017 236.051 778.243 237.438 785.71 237.438V238.398H744.11V179.838C741.337 190.505 737.497 199.891 732.59 207.998C727.897 215.891 722.457 222.505 716.27 227.838C710.083 232.958 703.47 236.798 696.43 239.358C689.39 242.131 682.35 243.518 675.31 243.518C667.417 243.518 659.737 241.918 652.27 238.718C645.017 235.518 638.51 230.825 632.75 224.638C626.99 218.451 622.403 210.771 618.99 201.598C615.577 192.211 613.87 181.438 613.87 169.278V94.0781C613.87 84.9048 612.377 78.9314 609.39 76.1581C606.617 73.1714 601.497 71.6781 594.03 71.6781V70.7181H655.79V71.6781C648.323 71.6781 643.097 73.1714 640.11 76.1581C637.337 78.9314 635.843 84.9048 635.63 94.0781V169.278C635.63 179.518 637.017 188.585 639.79 196.478C642.563 204.158 646.19 210.665 650.67 215.998C655.15 221.331 660.27 225.385 666.03 228.158C672.003 230.718 678.083 231.998 684.27 231.998C691.523 231.998 698.67 230.185 705.71 226.558C712.963 222.931 719.363 217.491 724.91 210.238C730.67 202.985 735.257 193.811 738.67 182.718C742.297 171.411 744.11 158.291 744.11 143.358V93.7581C743.897 84.7981 742.297 78.9314 739.31 76.1581C736.537 73.1714 731.417 71.6781 723.95 71.6781V70.7181H785.71V71.6781C778.243 71.6781 773.017 73.1714 770.03 76.1581C767.257 78.9314 765.87 85.0114 765.87 94.3981ZM873.605 70.0781V75.8381H841.925V238.398H819.845V75.8381H792.325V73.5981C801.925 71.6781 810.672 66.6648 818.565 58.5581C826.672 50.4514 833.712 39.5714 839.685 25.9181H841.925V70.0781H873.605Z" fill="#544530"/>
</svg>
